<svg width="60" height="50" viewBox="0 0 60 50" fill="none" xmlns="http://www.w3.org/2000/svg">
<g clip-path="url(#clip0_1288_1880)">
<path d="M59.8224 22.8762L49.1583 4.71104C48.8638 4.2093 48.2503 3.89111 47.5782 3.89111H12.4218C11.7495 3.89111 11.1362 4.2094 10.8417 4.71104L0.177602 22.8762C-0.0717733 23.3011 -0.057828 23.7999 0.214985 24.2147C0.487798 24.6295 0.985846 24.9089 1.55128 24.9644C3.04847 25.1114 4.51214 25.1331 5.97652 25.0382V44.4548C5.97652 45.2606 6.76355 45.9139 7.73433 45.9139C10.0483 45.9139 50.7497 45.9139 52.2657 45.9139C53.2364 45.9139 54.0235 45.2606 54.0235 44.4548V25.0388C55.49 25.1338 56.9713 25.1093 58.4487 24.9643C59.0142 24.9088 59.5122 24.6294 59.785 24.2146C60.0577 23.7998 60.0718 23.301 59.8224 22.8762ZM35.8255 6.80936L40.9022 18.772C35.8534 23.3367 24.0913 23.2865 19.0978 18.772L24.1745 6.80936H35.8255ZM4.50089 22.1735L13.5206 6.80936H20.4471L15.5442 18.3625C13.0439 20.9922 8.55324 22.1243 4.50089 22.1735ZM21.2109 42.9956H9.49215V38.6183H21.2109V42.9956ZM35.2734 42.9956H24.7266V31.3227H35.2734V42.9956ZM50.5079 42.9956H38.7891V38.6183H50.5079V42.9956ZM50.5079 35.7H38.7891V29.8635C38.7891 29.0577 38.002 28.4044 37.0313 28.4044H22.9687C21.998 28.4044 21.2109 29.0577 21.2109 29.8635V35.7H9.49215V24.5737C12.2782 24.0069 15.0146 22.9266 17.1098 21.2597C23.555 26.3837 36.4551 26.3756 42.8902 21.2597C44.9671 22.912 47.6918 24.0008 50.5079 24.5737V35.7ZM44.4557 18.3623L39.5528 6.80936H46.4793L55.4991 22.1736C51.4613 22.1241 46.9655 21.0021 44.4557 18.3623Z" fill="#EB0029"/>
</g>
<defs>
<clipPath id="clip0_1288_1880">
<rect width="60" height="49.8047" fill="white"/>
</clipPath>
</defs>
</svg>
